PathFileType	4	(X/Y/Z)	Patient4_TMGait_0pt5_01_left_03.trc.trc
DataRate	CameraRate	NumFrames	NumMarkers	Units	OrigDataRate	OrigDataStartFrame	OrigNumFrames
71.794871794872	71.794871794872	4	33	mm	71.794871794872	53	       141
Frame#	Time	L.ASIS			Sacral			L.Shoulder			Chest			R.Shoulder			Neck			R.ASIS			R.Thigh.Superior			R.Thigh.Lateral			R.Thigh.Inferior			R.Patella			L.Thigh.Superior			L.Thigh.Lateral			L.Thigh.Inferior			L.Patella			L.Shank.Superior			L.Shank.Lateral			L.Shank.Inferior			R.Shank.Superior			R.Shank.Lateral			R.Shank.Inferior			R.Heel			R.Midfoot.Superior			R.Midfoot.Lateral			R.Toe			L.Heel			L.Midfoot.Lateral			L.Midfoot.Superior			L.Toe			L.Elbow			L.Wrist			R.Elbow			R.Wrist			
		X1	Y1	Z1	X2	Y2	Z2	X3	Y3	Z3	X4	Y4	Z4	X5	Y5	Z5	X6	Y6	Z6	X7	Y7	Z7	X8	Y8	Z8	X9	Y9	Z9	X10	Y10	Z10	X11	Y11	Z11	X12	Y12	Z12	X13	Y13	Z13	X14	Y14	Z14	X15	Y15	Z15	X16	Y16	Z16	X17	Y17	Z17	X18	Y18	Z18	X19	Y19	Z19	X20	Y20	Z20	X21	Y21	Z21	X22	Y22	Z22	X23	Y23	Z23	X24	Y24	Z24	X25	Y25	Z25	X26	Y26	Z26	X27	Y27	Z27	X28	Y28	Z28	X29	Y29	Z29	X30	Y30	Z30	X31	Y31	Z31	X32	Y32	Z32	X33	Y33	Z33	

53	4.544285714286	742.284671788855	965.360411013184	288.933015678450	525.223666114044	1003.143443750264	446.966776390496	684.230912950071	1435.661790703590	260.542996492084	789.367558390440	1371.302761561047	422.795415749399	702.027555061559	1444.899676512528	596.112724084042	684.817723661695	1499.014483536459	410.370476759163	754.005666359716	947.062828023189	563.667048477571	834.000637095329	770.625582630180	540.617640799835	785.776168739800	650.625821336014	612.207370866742	878.541848657876	608.493494987867	538.478087810693	892.246585543298	494.392299717202	560.915298130041	793.993612528994	754.363767820735	321.274325158950	706.344752910878	637.023292688106	267.282441798510	789.774180371152	561.241697937011	332.895166072101	789.847140912873	491.318939185943	345.752823976574	765.742041397649	418.893883786052	339.112212833354	680.437242254186	300.866034178267	287.264518311280	731.014546769851	193.912580779166	366.344426676962	815.456029244819	420.740200426930	563.719236836450	692.162079488013	381.603620545119	619.364337223574	677.776393421290	273.763420291319	569.008353915937	475.949502849647	214.728272068890	531.744673150823	643.794525439081	159.560809881324	584.829563345422	531.984579696626	160.683032353944	611.540535360738	705.506647878908	47.456112525349	621.701867044930	603.793209761023	37.382209588474	409.192341813026	681.471559622468	34.559843252417	331.239363036326	763.070443505386	95.766195875251	360.542936573827	892.752635421187	45.559627944446	339.816708051635	666.714244926215	1083.194385906830	132.868318127871	806.148210646302	861.546565420256	135.579874120013	689.513477450907	1096.940485171043	715.046878500979	816.997448907254	871.038765588568	687.351923526759	
54	4.558214285714	741.728907295830	965.944755793333	287.862597483107	523.786111629998	1003.727801384210	444.703644362515	684.647511226268	1436.550280893174	259.427829224821	788.191800798786	1371.936855267524	422.604040076360	699.295847861629	1445.199285932637	595.211358841955	683.900468970932	1499.707670351914	409.371228304861	751.994991426485	948.226576770765	562.762258202181	834.408754090174	774.260448508748	539.744145734056	788.510700847416	653.787098410954	611.813699714411	881.859704406792	613.071515381753	538.053065173199	897.941426157149	499.531011245372	560.770261696131	791.082867459771	753.640502090383	320.537269749482	702.031280501465	637.196492260029	266.482747680462	784.259408155694	560.544858097816	332.341207548645	783.442747893091	490.887890736616	345.421141535818	759.411988378275	418.760158377794	338.700312560597	673.949319800652	300.853730242232	286.951124620395	724.246984441482	193.895423432875	366.197696576932	823.156189295136	424.135617323520	563.630725741866	701.156563678091	381.452157011969	619.308259129922	689.870316169821	273.180398344365	569.151016848082	489.914856374517	207.936301245512	532.256916932720	659.475189786097	158.085144097647	585.031214303880	547.746521412587	155.586877576782	611.846941094516	724.542982817428	47.955599636240	621.503642518379	596.715704287469	37.404059863853	409.174436932213	674.442707022521	34.562098581029	331.222912225523	756.080017320003	95.753385889123	360.486426467704	885.737594428501	45.451554245605	339.789157266107	672.593322181166	1084.425171220191	130.031605439769	818.168963592409	866.798700476285	132.910991044781	677.676850624388	1097.832554908891	714.117275753360	790.044043515171	862.785979540182	692.931585862889	
55	4.572142857143	741.214353308869	966.446027849226	286.985993244015	522.403264658467	1004.297287520507	442.588239791776	685.165689868880	1437.364941530390	258.417893105473	787.058263077627	1372.521980877566	422.533173573992	696.575027946473	1445.478193402236	594.390953154993	682.981675024058	1500.342948775867	408.464408089827	750.007935907784	949.272533138488	562.008856182939	834.429851515988	777.514149847565	538.958310713930	790.654620168046	656.669727277339	611.538740368420	884.301444306498	617.150251936522	537.604391705982	902.650117052063	504.447190389138	560.670262779975	788.115358783169	752.860194668389	320.030622204856	697.676486498019	637.357271732820	265.750005555920	778.592011353618	559.835957692134	331.914465777619	776.854284633028	490.476725108254	345.186690153107	752.950418507343	418.637975249616	338.356735773909	667.399347469956	300.820443970411	286.686353431880	717.445196182566	193.889974861142	366.113824272929	830.331483645732	427.180074236279	563.699072320137	710.157583525588	380.217403647525	619.666130472479	702.635260555780	271.526685292937	569.715519199586	505.132551323443	198.819180709318	533.584378591323	676.650340225855	155.389509790480	585.670366518637	565.198097538679	148.577747036823	612.849279605348	745.802797386788	47.927837769301	621.577399451079	589.636680838433	37.409425348587	409.172261128723	667.404947323718	34.557476499401	331.216976842741	749.074636916696	95.743943334748	360.444536681975	878.709395490396	45.371764450291	339.775088398692	678.055024021940	1085.698368563535	127.464573791074	830.055850930434	872.531970021129	130.537966952492	665.882477899129	1099.019597682471	713.207530654072	763.013690807918	856.354702953666	698.303229761121	
56	4.586071428571	740.746867205037	966.841583152901	286.310607331191	521.084335519702	1004.816756337075	440.617689452285	685.769159355737	1438.060884948143	257.516666624654	785.970085454080	1373.022932828949	422.578485581297	693.881365307945	1445.715646453798	593.654906032073	682.071174641491	1500.890152016561	407.648679391707	748.046840399371	950.156336027869	561.402310031850	834.066726214373	780.302243289239	538.253884594394	792.184800057799	659.182666569529	611.376360953457	885.846938338400	620.614750086091	537.122655777821	906.346948191979	509.038621070737	560.590013901278	785.117501409894	752.021821783333	319.752159021521	693.322196918326	637.497298361614	265.063554748775	772.807524833449	559.115839862141	331.601621120182	770.122683854140	490.080864485246	345.030267382760	746.385081951347	418.519345754970	338.067311976928	660.816478559884	300.758498630854	286.446303251869	710.620563643295	193.889238505567	366.083188250162	836.937454427234	429.834971147192	563.908520601522	719.158127905467	377.991834657360	620.422032960726	716.010283070339	268.965819746785	570.678003038396	521.664967073850	187.754907278067	535.650264712240	695.192296300345	151.734951651379	586.734209373506	584.283288819172	140.035603553384	614.501740825788	769.000218872426	47.574549820816	621.953467194443	582.564965098057	37.400519156680	409.180579729016	660.363199906883	34.546990901988	331.219951680073	742.058200432820	95.736945457772	360.418016164921	871.672805422388	45.321859853847	339.775380431741	683.108092498307	1086.949803644384	125.140283757116	841.775191748617	878.709058811259	128.456751200336	654.127787434165	1100.465473469025	712.320788989558	736.185215007170	851.705672612419	703.415686429371	
